<svg xmlns="http://www.w3.org/2000/svg" viewBox="0 0 1100 820" font-family="'Segoe UI', system-ui, -apple-system, sans-serif">
  <defs>
    <linearGradient id="faBg" x1="0%" y1="0%" x2="100%" y2="100%">
      <stop offset="0%" style="stop-color:#f8f9fa"/>
      <stop offset="100%" style="stop-color:#f0f2f5"/>
    </linearGradient>
    <linearGradient id="faSlotBg" x1="0%" y1="0%" x2="0%" y2="100%">
      <stop offset="0%" style="stop-color:#e8edf2"/>
      <stop offset="100%" style="stop-color:#e8edf2"/>
    </linearGradient>
    <marker id="faArrow" markerWidth="8" markerHeight="6" refX="7" refY="3" orient="auto">
      <polygon points="0 0, 8 3, 0 6" fill="#0077bb"/>
    </marker>
    <marker id="faArrowOrange" markerWidth="8" markerHeight="6" refX="7" refY="3" orient="auto">
      <polygon points="0 0, 8 3, 0 6" fill="#cc7700"/>
    </marker>
    <marker id="faArrowRed" markerWidth="8" markerHeight="6" refX="7" refY="3" orient="auto">
      <polygon points="0 0, 8 3, 0 6" fill="#cc2244"/>
    </marker>
    <filter id="faShadow">
      <feDropShadow dx="0" dy="2" stdDeviation="3" flood-opacity="0.25"/>
    </filter>
  </defs>

  <!-- Background -->
  <rect width="1100" height="820" rx="12" fill="none"/>

  <!-- Title -->
  <text x="550" y="28" text-anchor="middle" fill="#0077bb" font-size="16" font-weight="700">Detailed Apache Flink Deployment on Kubernetes with HA &amp; Durable Checkpoints</text>

  <!-- ===== K8s Cluster outer ===== -->
  <rect x="118" y="42" width="970" height="730" rx="12" fill="#f8f9fa" stroke="#cccccc" stroke-width="1.5" stroke-dasharray="8,4"/>
  <text x="138" y="64" fill="#888888" font-size="11" font-weight="600">Kubernetes Cluster</text>

  <!-- ============================================================= -->
  <!-- ===== JobManager Pod ===== -->
  <!-- ============================================================= -->
  <rect x="250" y="74" width="700" height="115" rx="10" fill="#f5f5f5" stroke="#0077bb" stroke-width="1.5" filter="url(#faShadow)"/>
  <text x="600" y="96" text-anchor="middle" fill="#0077bb" font-size="13" font-weight="700">JobManager Pod (Deployment, 1 replica)</text>

  <!-- Dispatcher -->
  <rect x="268" y="106" width="115" height="38" rx="6" fill="#e6f0f8" stroke="#0077bb" stroke-width="1"/>
  <text x="325" y="121" text-anchor="middle" fill="#0077bb" font-size="10" font-weight="600">Dispatcher</text>
  <text x="325" y="135" text-anchor="middle" fill="#666666" font-size="8">receives jobs</text>

  <!-- ResourceManager -->
  <rect x="393" y="106" width="125" height="38" rx="6" fill="#e6f0f8" stroke="#0077bb" stroke-width="1"/>
  <text x="455" y="121" text-anchor="middle" fill="#0077bb" font-size="10" font-weight="600">ResourceManager</text>
  <text x="455" y="135" text-anchor="middle" fill="#666666" font-size="8">tracks slots</text>

  <!-- CheckpointCoordinator -->
  <rect x="528" y="106" width="150" height="38" rx="6" fill="#e6f0f8" stroke="#cc7700" stroke-width="1"/>
  <text x="603" y="121" text-anchor="middle" fill="#cc7700" font-size="10" font-weight="600">CheckpointCoord.</text>
  <text x="603" y="135" text-anchor="middle" fill="#666666" font-size="8">snapshots every 30s</text>

  <!-- JobMaster -->
  <rect x="688" y="106" width="105" height="38" rx="6" fill="#e6f0f8" stroke="#0077bb" stroke-width="1"/>
  <text x="740" y="121" text-anchor="middle" fill="#0077bb" font-size="10" font-weight="600">JobMaster</text>
  <text x="740" y="135" text-anchor="middle" fill="#666666" font-size="8">execution graph</text>

  <!-- ExecutionGraph -->
  <rect x="803" y="106" width="120" height="38" rx="6" fill="#e6f0f8" stroke="#228833" stroke-width="1"/>
  <text x="863" y="121" text-anchor="middle" fill="#228833" font-size="10" font-weight="600">ExecutionGraph</text>
  <text x="863" y="135" text-anchor="middle" fill="#666666" font-size="8">8 instances/operator</text>

  <!-- ConfigMap HA -->
  <rect x="958" y="80" width="100" height="50" rx="6" fill="#fdf0f2" stroke="#cc2244" stroke-width="1" filter="url(#faShadow)"/>
  <text x="1008" y="100" text-anchor="middle" fill="#cc2244" font-size="10" font-weight="600">ConfigMap</text>
  <text x="1008" y="114" text-anchor="middle" fill="#cc2244" font-size="9">(HA)</text>
  <text x="1008" y="126" text-anchor="middle" fill="#666666" font-size="7">leader election</text>

  <!-- ===== Checkpoint trigger + Task assignment arrows ===== -->
  <text x="350" y="208" fill="#cc7700" font-size="9" font-weight="600">Checkpoint Triggers ↓</text>
  <text x="640" y="208" fill="#0077bb" font-size="9" font-weight="600">Task Assignment ↓</text>

  <!-- ============================================================= -->
  <!-- ===== Kafka Cluster (left side) ===== -->
  <!-- ============================================================= -->
  <rect x="10" y="218" width="100" height="380" rx="10" fill="#fdf0f2" stroke="#cc2244" stroke-width="1.5" filter="url(#faShadow)"/>
  <text x="60" y="244" text-anchor="middle" fill="#cc2244" font-size="12" font-weight="700">Kafka</text>
  <text x="60" y="260" text-anchor="middle" fill="#cc2244" font-size="11">Cluster</text>

  <!-- Kafka Partitions -->
  <rect x="18" y="272" width="84" height="18" rx="3" fill="#f8f9fa" stroke="#cc2244" stroke-width="0.7"/>
  <text x="60" y="285" text-anchor="middle" fill="#992233" font-size="8">Partition 0</text>
  <rect x="18" y="294" width="84" height="18" rx="3" fill="#f8f9fa" stroke="#cc2244" stroke-width="0.7"/>
  <text x="60" y="307" text-anchor="middle" fill="#992233" font-size="8">Partition 1</text>
  <rect x="18" y="316" width="84" height="18" rx="3" fill="#f8f9fa" stroke="#cc2244" stroke-width="0.7"/>
  <text x="60" y="329" text-anchor="middle" fill="#992233" font-size="8">Partition 2</text>
  <rect x="18" y="338" width="84" height="18" rx="3" fill="#f8f9fa" stroke="#cc2244" stroke-width="0.7"/>
  <text x="60" y="351" text-anchor="middle" fill="#992233" font-size="8">Partition 3</text>
  <rect x="18" y="380" width="84" height="18" rx="3" fill="#f8f9fa" stroke="#cc2244" stroke-width="0.7"/>
  <text x="60" y="393" text-anchor="middle" fill="#992233" font-size="8">Partition 4</text>
  <rect x="18" y="402" width="84" height="18" rx="3" fill="#f8f9fa" stroke="#cc2244" stroke-width="0.7"/>
  <text x="60" y="415" text-anchor="middle" fill="#992233" font-size="8">Partition 5</text>
  <rect x="18" y="424" width="84" height="18" rx="3" fill="#f8f9fa" stroke="#cc2244" stroke-width="0.7"/>
  <text x="60" y="437" text-anchor="middle" fill="#992233" font-size="8">Partition 6</text>
  <rect x="18" y="446" width="84" height="18" rx="3" fill="#f8f9fa" stroke="#cc2244" stroke-width="0.7"/>
  <text x="60" y="459" text-anchor="middle" fill="#992233" font-size="8">Partition 7</text>

  <!-- Separator line between P3/P4 -->
  <line x1="22" y1="370" x2="98" y2="370" stroke="#888888" stroke-width="0.5" stroke-dasharray="3,3"/>

  <!-- ============================================================= -->
  <!-- ===== Node A ===== -->
  <!-- ============================================================= -->
  <rect x="128" y="218" width="470" height="270" rx="10" fill="#f8f9fa" stroke="#cccccc" stroke-width="1" stroke-dasharray="6,3"/>
  <text x="148" y="238" fill="#888888" font-size="10" font-weight="600">Node A</text>

  <!-- TM Pod 1 -->
  <rect x="138" y="248" width="450" height="110" rx="8" fill="#f5f5f5" stroke="#0077bb" stroke-width="1.2" filter="url(#faShadow)"/>
  <text x="363" y="268" text-anchor="middle" fill="#0077bb" font-size="11" font-weight="700">TaskManager Pod 1 (10 GB memory)</text>

  <!-- Slot 0 -->
  <rect x="148" y="278" width="215" height="68" rx="6" fill="url(#faSlotBg)" stroke="#cc7700" stroke-width="1"/>
  <text x="155" y="293" fill="#cc7700" font-size="9" font-weight="600">Slot 0</text>
  <rect x="155" y="298" width="48" height="20" rx="3" fill="#e6f0f8" stroke="#0077bb" stroke-width="0.8"/>
  <text x="179" y="312" text-anchor="middle" fill="#0077bb" font-size="8">Src[0]</text>
  <rect x="208" y="298" width="48" height="20" rx="3" fill="#e6f0f8" stroke="#cc7700" stroke-width="0.8"/>
  <text x="232" y="312" text-anchor="middle" fill="#cc7700" font-size="8">Ded[0]</text>
  <rect x="261" y="298" width="48" height="20" rx="3" fill="#e6f0f8" stroke="#228833" stroke-width="0.8"/>
  <text x="285" y="312" text-anchor="middle" fill="#228833" font-size="8">Enr[0]</text>
  <rect x="314" y="298" width="42" height="20" rx="3" fill="#e6f0f8" stroke="#cc2244" stroke-width="0.8"/>
  <text x="335" y="312" text-anchor="middle" fill="#cc2244" font-size="8">Snk[0]</text>
  <text x="255" y="338" text-anchor="middle" fill="#666666" font-size="7">reads Kafka partition 0</text>

  <!-- Slot 1 -->
  <rect x="373" y="278" width="205" height="68" rx="6" fill="url(#faSlotBg)" stroke="#cc7700" stroke-width="1"/>
  <text x="380" y="293" fill="#cc7700" font-size="9" font-weight="600">Slot 1</text>
  <rect x="380" y="298" width="44" height="20" rx="3" fill="#e6f0f8" stroke="#0077bb" stroke-width="0.8"/>
  <text x="402" y="312" text-anchor="middle" fill="#0077bb" font-size="8">Src[1]</text>
  <rect x="429" y="298" width="44" height="20" rx="3" fill="#e6f0f8" stroke="#cc7700" stroke-width="0.8"/>
  <text x="451" y="312" text-anchor="middle" fill="#cc7700" font-size="8">Ded[1]</text>
  <rect x="478" y="298" width="44" height="20" rx="3" fill="#e6f0f8" stroke="#228833" stroke-width="0.8"/>
  <text x="500" y="312" text-anchor="middle" fill="#228833" font-size="8">Enr[1]</text>
  <rect x="527" y="298" width="42" height="20" rx="3" fill="#e6f0f8" stroke="#cc2244" stroke-width="0.8"/>
  <text x="548" y="312" text-anchor="middle" fill="#cc2244" font-size="8">Snk[1]</text>
  <text x="475" y="338" text-anchor="middle" fill="#666666" font-size="7">reads Kafka partition 1</text>

  <!-- TM Pod 2 -->
  <rect x="138" y="368" width="450" height="110" rx="8" fill="#f5f5f5" stroke="#0077bb" stroke-width="1.2" filter="url(#faShadow)"/>
  <text x="363" y="388" text-anchor="middle" fill="#0077bb" font-size="11" font-weight="700">TaskManager Pod 2 (10 GB memory)</text>

  <!-- Slot 4 -->
  <rect x="148" y="398" width="215" height="68" rx="6" fill="url(#faSlotBg)" stroke="#cc7700" stroke-width="1"/>
  <text x="155" y="413" fill="#cc7700" font-size="9" font-weight="600">Slot 4</text>
  <rect x="155" y="418" width="48" height="20" rx="3" fill="#e6f0f8" stroke="#0077bb" stroke-width="0.8"/>
  <text x="179" y="432" text-anchor="middle" fill="#0077bb" font-size="8">Src[4]</text>
  <rect x="208" y="418" width="48" height="20" rx="3" fill="#e6f0f8" stroke="#cc7700" stroke-width="0.8"/>
  <text x="232" y="432" text-anchor="middle" fill="#cc7700" font-size="8">Ded[4]</text>
  <rect x="261" y="418" width="48" height="20" rx="3" fill="#e6f0f8" stroke="#228833" stroke-width="0.8"/>
  <text x="285" y="432" text-anchor="middle" fill="#228833" font-size="8">Enr[4]</text>
  <rect x="314" y="418" width="42" height="20" rx="3" fill="#e6f0f8" stroke="#cc2244" stroke-width="0.8"/>
  <text x="335" y="432" text-anchor="middle" fill="#cc2244" font-size="8">Snk[4]</text>
  <text x="255" y="458" text-anchor="middle" fill="#666666" font-size="7">reads Kafka partition 4</text>

  <!-- Slot 5 -->
  <rect x="373" y="398" width="205" height="68" rx="6" fill="url(#faSlotBg)" stroke="#cc7700" stroke-width="1"/>
  <text x="380" y="413" fill="#cc7700" font-size="9" font-weight="600">Slot 5</text>
  <rect x="380" y="418" width="44" height="20" rx="3" fill="#e6f0f8" stroke="#0077bb" stroke-width="0.8"/>
  <text x="402" y="432" text-anchor="middle" fill="#0077bb" font-size="8">Src[5]</text>
  <rect x="429" y="418" width="44" height="20" rx="3" fill="#e6f0f8" stroke="#cc7700" stroke-width="0.8"/>
  <text x="451" y="432" text-anchor="middle" fill="#cc7700" font-size="8">Ded[5]</text>
  <rect x="478" y="418" width="44" height="20" rx="3" fill="#e6f0f8" stroke="#228833" stroke-width="0.8"/>
  <text x="500" y="432" text-anchor="middle" fill="#228833" font-size="8">Enr[5]</text>
  <rect x="527" y="418" width="42" height="20" rx="3" fill="#e6f0f8" stroke="#cc2244" stroke-width="0.8"/>
  <text x="548" y="432" text-anchor="middle" fill="#cc2244" font-size="8">Snk[5]</text>
  <text x="475" y="458" text-anchor="middle" fill="#666666" font-size="7">reads Kafka partition 5</text>

  <!-- ============================================================= -->
  <!-- ===== Node B ===== -->
  <!-- ============================================================= -->
  <rect x="608" y="218" width="470" height="270" rx="10" fill="#f8f9fa" stroke="#cccccc" stroke-width="1" stroke-dasharray="6,3"/>
  <text x="628" y="238" fill="#888888" font-size="10" font-weight="600">Node B</text>

  <!-- TM Pod 3 -->
  <rect x="618" y="248" width="450" height="110" rx="8" fill="#f5f5f5" stroke="#0077bb" stroke-width="1.2" filter="url(#faShadow)"/>
  <text x="843" y="268" text-anchor="middle" fill="#0077bb" font-size="11" font-weight="700">TaskManager Pod 3 (10 GB memory)</text>

  <!-- Slot 2 -->
  <rect x="628" y="278" width="215" height="68" rx="6" fill="url(#faSlotBg)" stroke="#cc7700" stroke-width="1"/>
  <text x="635" y="293" fill="#cc7700" font-size="9" font-weight="600">Slot 2</text>
  <rect x="635" y="298" width="48" height="20" rx="3" fill="#e6f0f8" stroke="#0077bb" stroke-width="0.8"/>
  <text x="659" y="312" text-anchor="middle" fill="#0077bb" font-size="8">Src[2]</text>
  <rect x="688" y="298" width="48" height="20" rx="3" fill="#e6f0f8" stroke="#cc7700" stroke-width="0.8"/>
  <text x="712" y="312" text-anchor="middle" fill="#cc7700" font-size="8">Ded[2]</text>
  <rect x="741" y="298" width="48" height="20" rx="3" fill="#e6f0f8" stroke="#228833" stroke-width="0.8"/>
  <text x="765" y="312" text-anchor="middle" fill="#228833" font-size="8">Enr[2]</text>
  <rect x="794" y="298" width="42" height="20" rx="3" fill="#e6f0f8" stroke="#cc2244" stroke-width="0.8"/>
  <text x="815" y="312" text-anchor="middle" fill="#cc2244" font-size="8">Snk[2]</text>
  <text x="735" y="338" text-anchor="middle" fill="#666666" font-size="7">reads Kafka partition 2</text>

  <!-- Slot 3 -->
  <rect x="853" y="278" width="205" height="68" rx="6" fill="url(#faSlotBg)" stroke="#cc7700" stroke-width="1"/>
  <text x="860" y="293" fill="#cc7700" font-size="9" font-weight="600">Slot 3</text>
  <rect x="860" y="298" width="44" height="20" rx="3" fill="#e6f0f8" stroke="#0077bb" stroke-width="0.8"/>
  <text x="882" y="312" text-anchor="middle" fill="#0077bb" font-size="8">Src[3]</text>
  <rect x="909" y="298" width="44" height="20" rx="3" fill="#e6f0f8" stroke="#cc7700" stroke-width="0.8"/>
  <text x="931" y="312" text-anchor="middle" fill="#cc7700" font-size="8">Ded[3]</text>
  <rect x="958" y="298" width="44" height="20" rx="3" fill="#e6f0f8" stroke="#228833" stroke-width="0.8"/>
  <text x="980" y="312" text-anchor="middle" fill="#228833" font-size="8">Enr[3]</text>
  <rect x="1007" y="298" width="42" height="20" rx="3" fill="#e6f0f8" stroke="#cc2244" stroke-width="0.8"/>
  <text x="1028" y="312" text-anchor="middle" fill="#cc2244" font-size="8">Snk[3]</text>
  <text x="955" y="338" text-anchor="middle" fill="#666666" font-size="7">reads Kafka partition 3</text>

  <!-- TM Pod 4 -->
  <rect x="618" y="368" width="450" height="110" rx="8" fill="#f5f5f5" stroke="#0077bb" stroke-width="1.2" filter="url(#faShadow)"/>
  <text x="843" y="388" text-anchor="middle" fill="#0077bb" font-size="11" font-weight="700">TaskManager Pod 4 (10 GB memory)</text>

  <!-- Slot 6 -->
  <rect x="628" y="398" width="215" height="68" rx="6" fill="url(#faSlotBg)" stroke="#cc7700" stroke-width="1"/>
  <text x="635" y="413" fill="#cc7700" font-size="9" font-weight="600">Slot 6</text>
  <rect x="635" y="418" width="48" height="20" rx="3" fill="#e6f0f8" stroke="#0077bb" stroke-width="0.8"/>
  <text x="659" y="432" text-anchor="middle" fill="#0077bb" font-size="8">Src[6]</text>
  <rect x="688" y="418" width="48" height="20" rx="3" fill="#e6f0f8" stroke="#cc7700" stroke-width="0.8"/>
  <text x="712" y="432" text-anchor="middle" fill="#cc7700" font-size="8">Ded[6]</text>
  <rect x="741" y="418" width="48" height="20" rx="3" fill="#e6f0f8" stroke="#228833" stroke-width="0.8"/>
  <text x="765" y="432" text-anchor="middle" fill="#228833" font-size="8">Enr[6]</text>
  <rect x="794" y="418" width="42" height="20" rx="3" fill="#e6f0f8" stroke="#cc2244" stroke-width="0.8"/>
  <text x="815" y="432" text-anchor="middle" fill="#cc2244" font-size="8">Snk[6]</text>
  <text x="735" y="458" text-anchor="middle" fill="#666666" font-size="7">reads Kafka partition 6</text>

  <!-- Slot 7 -->
  <rect x="853" y="398" width="205" height="68" rx="6" fill="url(#faSlotBg)" stroke="#cc7700" stroke-width="1"/>
  <text x="860" y="413" fill="#cc7700" font-size="9" font-weight="600">Slot 7</text>
  <rect x="860" y="418" width="44" height="20" rx="3" fill="#e6f0f8" stroke="#0077bb" stroke-width="0.8"/>
  <text x="882" y="432" text-anchor="middle" fill="#0077bb" font-size="8">Src[7]</text>
  <rect x="909" y="418" width="44" height="20" rx="3" fill="#e6f0f8" stroke="#cc7700" stroke-width="0.8"/>
  <text x="931" y="432" text-anchor="middle" fill="#cc7700" font-size="8">Ded[7]</text>
  <rect x="958" y="418" width="44" height="20" rx="3" fill="#e6f0f8" stroke="#228833" stroke-width="0.8"/>
  <text x="980" y="432" text-anchor="middle" fill="#228833" font-size="8">Enr[7]</text>
  <rect x="1007" y="418" width="42" height="20" rx="3" fill="#e6f0f8" stroke="#cc2244" stroke-width="0.8"/>
  <text x="1028" y="432" text-anchor="middle" fill="#cc2244" font-size="8">Snk[7]</text>
  <text x="955" y="458" text-anchor="middle" fill="#666666" font-size="7">reads Kafka partition 7</text>

  <!-- ============================================================= -->
  <!-- ===== Ephemeral Disk ===== -->
  <!-- ============================================================= -->
  <!-- Node A disk -->
  <rect x="138" y="498" width="450" height="34" rx="6" fill="#f0f0f0" stroke="#cc7700" stroke-width="1"/>
  <text x="363" y="520" text-anchor="middle" fill="#cc7700" font-size="9" font-weight="600">Ephemeral disk: RocksDB SST files for slots [0,1,4,5]</text>

  <!-- Node B disk -->
  <rect x="618" y="498" width="450" height="34" rx="6" fill="#f0f0f0" stroke="#cc7700" stroke-width="1"/>
  <text x="843" y="520" text-anchor="middle" fill="#cc7700" font-size="9" font-weight="600">Ephemeral disk: RocksDB SST files for slots [2,3,6,7]</text>

  <!-- ============================================================= -->
  <!-- ===== Kafka → Source arrows ===== -->
  <!-- ============================================================= -->
  <!-- P0 → Src[0] -->
  <line x1="110" y1="281" x2="153" y2="308" stroke="#cc2244" stroke-width="1" opacity="0.6" marker-end="url(#faArrowRed)"/>
  <!-- P1 → Src[1] -->
  <line x1="110" y1="303" x2="378" y2="308" stroke="#cc2244" stroke-width="1" opacity="0.6" marker-end="url(#faArrowRed)"/>
  <!-- P2 → Src[2] -->
  <line x1="110" y1="325" x2="633" y2="308" stroke="#cc2244" stroke-width="1" opacity="0.6" marker-end="url(#faArrowRed)"/>
  <!-- P3 → Src[3] -->
  <line x1="110" y1="347" x2="858" y2="308" stroke="#cc2244" stroke-width="1" opacity="0.6" marker-end="url(#faArrowRed)"/>
  <!-- P4 → Src[4] -->
  <line x1="110" y1="389" x2="153" y2="428" stroke="#cc2244" stroke-width="1" opacity="0.6" marker-end="url(#faArrowRed)"/>
  <!-- P5 → Src[5] -->
  <line x1="110" y1="411" x2="378" y2="428" stroke="#cc2244" stroke-width="1" opacity="0.6" marker-end="url(#faArrowRed)"/>
  <!-- P6 → Src[6] -->
  <line x1="110" y1="433" x2="633" y2="428" stroke="#cc2244" stroke-width="1" opacity="0.6" marker-end="url(#faArrowRed)"/>
  <!-- P7 → Src[7] -->
  <line x1="110" y1="455" x2="858" y2="428" stroke="#cc2244" stroke-width="1" opacity="0.6" marker-end="url(#faArrowRed)"/>

  <!-- ============================================================= -->
  <!-- ===== External Sink (right) ===== -->
  <!-- ============================================================= -->
  <rect x="1000" y="548" width="88" height="60" rx="8" fill="#eef8ee" stroke="#228833" stroke-width="1.5" filter="url(#faShadow)"/>
  <text x="1044" y="572" text-anchor="middle" fill="#228833" font-size="10" font-weight="700">External</text>
  <text x="1044" y="586" text-anchor="middle" fill="#228833" font-size="10">Sink</text>
  <text x="1044" y="600" text-anchor="middle" fill="#666666" font-size="8">S3, HDFS</text>

  <!-- ============================================================= -->
  <!-- ===== S3 Bucket ===== -->
  <!-- ============================================================= -->
  <rect x="280" y="555" width="540" height="70" rx="10" fill="#eef8ee" stroke="#228833" stroke-width="1.5" filter="url(#faShadow)"/>
  <text x="550" y="580" text-anchor="middle" fill="#228833" font-size="13" font-weight="700">S3 Bucket: Checkpoint Storage</text>
  <text x="550" y="598" text-anchor="middle" fill="#444444" font-size="10">Durable state snapshots — survives Pod restarts. Incremental SST uploads.</text>
  <text x="550" y="614" text-anchor="middle" fill="#666666" font-size="9">_metadata file = atomic commit point for each checkpoint</text>

  <!-- State snapshot arrows to S3 -->
  <line x1="363" y1="532" x2="440" y2="555" stroke="#228833" stroke-width="1.2" stroke-dasharray="4,3" opacity="0.6"/>
  <line x1="843" y1="532" x2="660" y2="555" stroke="#228833" stroke-width="1.2" stroke-dasharray="4,3" opacity="0.6"/>
  <text x="200" y="554" fill="#228833" font-size="8" opacity="0.7">State Snapshot to S3 ↓</text>
  <text x="880" y="554" fill="#228833" font-size="8" opacity="0.7">State Snapshot to S3 ↓</text>

  <!-- ============================================================= -->
  <!-- ===== Legend ===== -->
  <!-- ============================================================= -->
  <rect x="128" y="640" width="960" height="128" rx="8" fill="#f8f9fa"/>

  <!-- Row 1: Component colors -->
  <text x="148" y="662" fill="#555555" font-size="10" font-weight="600">Components:</text>
  <rect x="250" y="652" width="12" height="12" rx="2" fill="#0077bb" opacity="0.7"/>
  <text x="268" y="662" fill="#555555" font-size="9">Source / Network</text>
  <rect x="380" y="652" width="12" height="12" rx="2" fill="#cc7700" opacity="0.7"/>
  <text x="398" y="662" fill="#555555" font-size="9">Keyed State (Dedup) / Slots</text>
  <rect x="560" y="652" width="12" height="12" rx="2" fill="#228833" opacity="0.7"/>
  <text x="578" y="662" fill="#555555" font-size="9">Broadcast State (Enrich) / S3</text>
  <rect x="760" y="652" width="12" height="12" rx="2" fill="#cc2244" opacity="0.7"/>
  <text x="778" y="662" fill="#555555" font-size="9">Sink / Kafka</text>

  <!-- Row 2: Key facts -->
  <text x="148" y="688" fill="#555555" font-size="10" font-weight="600">Key facts:</text>
  <text x="250" y="688" fill="#444444" font-size="9">Parallelism = 8 | 2 slots/TM | 4 TM Pods | 8 Kafka partitions (1:1 mapping)</text>

  <!-- Row 3 -->
  <text x="148" y="708" fill="#555555" font-size="10" font-weight="600">Slot sharing:</text>
  <text x="250" y="708" fill="#444444" font-size="9">All 4 operators chained in same slot → same thread → direct method calls, no serialization</text>

  <!-- Row 4 -->
  <text x="148" y="728" fill="#555555" font-size="10" font-weight="600">Recovery:</text>
  <text x="250" y="728" fill="#444444" font-size="9">Ephemeral disk lost on Pod death → restored from S3 checkpoint. Sources rewind to checkpointed Kafka offsets.</text>

  <!-- Row 5 -->
  <text x="148" y="748" fill="#555555" font-size="10" font-weight="600">Scaling:</text>
  <text x="250" y="748" fill="#444444" font-size="9">Increase parallelism → add TM Pods → savepoint → redistribute key groups across new slots</text>
</svg>